<mxfile host="app.diagrams.net" modified="2023-05-01T12:49:37.269Z" agent="Mozilla/5.0 (Macintosh; Intel Mac OS X 10_15_7) AppleWebKit/537.36 (KHTML, like Gecko) Chrome/112.0.0.0 Safari/537.36" version="21.2.1" etag="1ZvauX2tloS3lQqtcmQe" type="github">
  <diagram name="Page-1" id="jqsyt9EHRXpoQDLmxjBp">
    <mxGraphModel>
      <root>
        <mxCell id="0" />
        <mxCell id="1" parent="0" />
      </root>
    </mxGraphModel>
  </diagram>
</mxfile>
